# WaveFront *.obj file (generated by Autodesk ATF)

mtllib ecran.mtl

g Corps9

v 0.050000 1.000000 -1.850000
v 0.050000 -1.000000 -1.850000
v -0.050000 -1.000000 -1.850000
v -0.050000 1.000000 -1.850000
v 0.050000 1.200000 -1.650000
v 0.050000 1.193185 -1.701764
v 0.050000 1.173205 -1.750000
v 0.050000 1.141421 -1.791421
v 0.050000 1.100000 -1.823205
v 0.050000 1.051764 -1.843185
v -0.050000 1.051764 -1.843185
v -0.050000 1.100000 -1.823205
v -0.050000 1.141421 -1.791421
v -0.050000 1.173205 -1.750000
v -0.050000 1.193185 -1.701764
v -0.050000 1.200000 -1.650000
v 0.050000 1.200000 1.650000
v -0.050000 1.200000 1.650000
v 0.050000 1.000000 1.850000
v 0.050000 1.051764 1.843185
v 0.050000 1.100000 1.823205
v 0.050000 1.141421 1.791421
v 0.050000 1.173205 1.750000
v 0.050000 1.193185 1.701764
v -0.050000 1.193185 1.701764
v -0.050000 1.173205 1.750000
v -0.050000 1.141421 1.791421
v -0.050000 1.100000 1.823205
v -0.050000 1.051764 1.843185
v -0.050000 1.000000 1.850000
v 0.050000 -1.000000 1.850000
v -0.050000 -1.000000 1.850000
v 0.050000 -1.200000 1.650000
v 0.050000 -1.193185 1.701764
v 0.050000 -1.173205 1.750000
v 0.050000 -1.141421 1.791421
v 0.050000 -1.100000 1.823205
v 0.050000 -1.051764 1.843185
v -0.050000 -1.051764 1.843185
v -0.050000 -1.100000 1.823205
v -0.050000 -1.141421 1.791421
v -0.050000 -1.173205 1.750000
v -0.050000 -1.193185 1.701764
v -0.050000 -1.200000 1.650000
v 0.050000 -1.200000 -1.650000
v -0.050000 -1.200000 -1.650000
v 0.050000 -1.051764 -1.843185
v 0.050000 -1.100000 -1.823205
v 0.050000 -1.141421 -1.791421
v 0.050000 -1.173205 -1.750000
v 0.050000 -1.193185 -1.701764
v -0.050000 -1.193185 -1.701764
v -0.050000 -1.173205 -1.750000
v -0.050000 -1.141421 -1.791421
v -0.050000 -1.100000 -1.823205
v -0.050000 -1.051764 -1.843185
vt 0.000000 0.000000 0.000000
vt 2.000000 0.000000 0.000000
vt 0.000000 0.100000 0.000000
vt 2.000000 0.100000 0.000000
vt -0.100000 -0.314159 0.000000
vt -0.000000 -0.314159 0.000000
vt -0.100000 -0.261799 0.000000
vt -0.000000 -0.261799 0.000000
vt -0.100000 -0.209440 0.000000
vt -0.000000 -0.209440 0.000000
vt -0.100000 -0.157080 0.000000
vt -0.000000 -0.157080 0.000000
vt -0.100000 -0.104720 0.000000
vt -0.000000 -0.104720 0.000000
vt -0.100000 -0.052360 0.000000
vt -0.000000 -0.052360 0.000000
vt -0.100000 0.000000 0.000000
vt 0.000000 0.000000 0.000000
vt 0.000000 0.000000 0.000000
vt 3.300000 0.000000 0.000000
vt 0.000000 0.100000 0.000000
vt 3.300000 0.100000 0.000000
vt -0.100000 -0.314159 0.000000
vt -0.000000 -0.314159 0.000000
vt -0.100000 -0.261799 0.000000
vt -0.000000 -0.261799 0.000000
vt -0.100000 -0.209440 0.000000
vt -0.000000 -0.209440 0.000000
vt -0.100000 -0.157080 0.000000
vt -0.000000 -0.157080 0.000000
vt -0.100000 -0.104720 0.000000
vt -0.000000 -0.104720 0.000000
vt -0.100000 -0.052360 0.000000
vt -0.000000 -0.052360 0.000000
vt -0.100000 0.000000 0.000000
vt -0.000000 0.000000 0.000000
vt 0.000000 0.000000 0.000000
vt 2.000000 0.000000 0.000000
vt 0.000000 0.100000 0.000000
vt 2.000000 0.100000 0.000000
vt -0.100000 -0.314159 0.000000
vt -0.000000 -0.314159 0.000000
vt -0.100000 -0.261799 0.000000
vt -0.000000 -0.261799 0.000000
vt -0.100000 -0.209440 0.000000
vt -0.000000 -0.209440 0.000000
vt -0.100000 -0.157080 0.000000
vt -0.000000 -0.157080 0.000000
vt -0.100000 -0.104720 0.000000
vt -0.000000 -0.104720 0.000000
vt -0.100000 -0.052360 0.000000
vt -0.000000 -0.052360 0.000000
vt -0.100000 0.000000 0.000000
vt -0.000000 0.000000 0.000000
vt 0.000000 0.000000 0.000000
vt 3.300000 0.000000 0.000000
vt 0.000000 0.100000 0.000000
vt 3.300000 0.100000 0.000000
vt -0.100000 -0.314159 0.000000
vt -0.000000 -0.314159 0.000000
vt -0.100000 -0.261799 0.000000
vt 0.000000 -0.261799 0.000000
vt -0.100000 -0.209440 0.000000
vt -0.000000 -0.209440 0.000000
vt -0.100000 -0.157080 0.000000
vt -0.000000 -0.157080 0.000000
vt -0.100000 -0.104720 0.000000
vt -0.000000 -0.104720 0.000000
vt -0.100000 -0.052360 0.000000
vt 0.000000 -0.052360 0.000000
vt -0.100000 0.000000 0.000000
vt -0.000000 0.000000 0.000000
vt -1.193185 -1.701764 0.000000
vt -1.173205 -1.750000 0.000000
vt -1.200000 -1.650000 0.000000
vt -1.141421 -1.791421 0.000000
vt -1.100000 -1.823205 0.000000
vt -1.051764 -1.843185 0.000000
vt -1.000000 -1.850000 0.000000
vt -1.000000 1.850000 0.000000
vt 1.000000 -1.850000 0.000000
vt 1.000000 1.850000 0.000000
vt 1.200000 -1.650000 0.000000
vt 1.200000 1.650000 0.000000
vt 1.051764 -1.843185 0.000000
vt 1.100000 -1.823205 0.000000
vt 1.141421 -1.791421 0.000000
vt 1.173205 -1.750000 0.000000
vt 1.193185 -1.701764 0.000000
vt 1.193185 1.701764 0.000000
vt 1.173205 1.750000 0.000000
vt 1.141421 1.791421 0.000000
vt 1.100000 1.823205 0.000000
vt 1.051764 1.843185 0.000000
vt -1.200000 1.650000 0.000000
vt -1.051764 1.843185 0.000000
vt -1.100000 1.823205 0.000000
vt -1.141421 1.791421 0.000000
vt -1.173205 1.750000 0.000000
vt -1.193185 1.701764 0.000000
vt 1.051764 -1.843185 0.000000
vt 1.200000 -1.650000 0.000000
vt 1.000000 -1.850000 0.000000
vt 1.000000 1.850000 0.000000
vt -1.000000 1.850000 0.000000
vt 1.100000 -1.823205 0.000000
vt 1.141421 -1.791421 0.000000
vt 1.173205 -1.750000 0.000000
vt 1.193185 -1.701764 0.000000
vt 1.200000 1.650000 0.000000
vt 1.051764 1.843185 0.000000
vt 1.100000 1.823205 0.000000
vt 1.141421 1.791421 0.000000
vt 1.173205 1.750000 0.000000
vt 1.193185 1.701764 0.000000
vt -1.051764 1.843185 0.000000
vt -1.200000 1.650000 0.000000
vt -1.200000 -1.650000 0.000000
vt -1.000000 -1.850000 0.000000
vt -1.051764 -1.843185 0.000000
vt -1.100000 -1.823205 0.000000
vt -1.141421 -1.791421 0.000000
vt -1.173205 -1.750000 0.000000
vt -1.193185 -1.701764 0.000000
vt -1.100000 1.823205 0.000000
vt -1.141421 1.791421 0.000000
vt -1.173205 1.750000 0.000000
vt -1.193185 1.701764 0.000000
vn -0.000000 -0.000000 -1.000000
vn -0.000000 -0.000000 -1.000000
vn -0.000000 -0.000000 -1.000000
vn -0.000000 -0.000000 -1.000000
vn -0.000000 1.000000 -0.000000
vn -0.000000 1.000000 -0.000000
vn -0.000000 0.965926 -0.258819
vn -0.000000 0.965926 -0.258819
vn -0.000000 0.866025 -0.500000
vn -0.000000 0.866025 -0.500000
vn -0.000000 0.707107 -0.707107
vn -0.000000 0.707107 -0.707107
vn -0.000000 0.500000 -0.866025
vn -0.000000 0.500000 -0.866025
vn -0.000000 0.258819 -0.965926
vn -0.000000 0.258819 -0.965926
vn 0.000000 1.000000 0.000000
vn 0.000000 1.000000 0.000000
vn 0.000000 1.000000 0.000000
vn 0.000000 1.000000 0.000000
vn -0.000000 -0.000000 1.000000
vn -0.000000 -0.000000 1.000000
vn 0.000000 0.258819 0.965926
vn 0.000000 0.258819 0.965926
vn 0.000000 0.500000 0.866025
vn 0.000000 0.500000 0.866025
vn 0.000000 0.707107 0.707107
vn 0.000000 0.707107 0.707107
vn 0.000000 0.866025 0.500000
vn 0.000000 0.866025 0.500000
vn 0.000000 0.965926 0.258819
vn 0.000000 0.965926 0.258819
vn 0.000000 1.000000 0.000000
vn 0.000000 1.000000 0.000000
vn 0.000000 -0.000000 1.000000
vn 0.000000 -0.000000 1.000000
vn 0.000000 -0.000000 1.000000
vn 0.000000 -0.000000 1.000000
vn -0.000000 -1.000000 0.000000
vn -0.000000 -1.000000 0.000000
vn -0.000000 -0.965926 0.258819
vn -0.000000 -0.965926 0.258819
vn -0.000000 -0.866025 0.500000
vn -0.000000 -0.866025 0.500000
vn -0.000000 -0.707107 0.707107
vn -0.000000 -0.707107 0.707107
vn -0.000000 -0.500000 0.866025
vn -0.000000 -0.500000 0.866025
vn -0.000000 -0.258819 0.965926
vn -0.000000 -0.258819 0.965926
vn 0.000000 -0.000000 1.000000
vn 0.000000 -0.000000 1.000000
vn -0.000000 -1.000000 -0.000000
vn -0.000000 -1.000000 -0.000000
vn -0.000000 -0.258819 -0.965926
vn -0.000000 -0.258819 -0.965926
vn -0.000000 -0.500000 -0.866025
vn -0.000000 -0.500000 -0.866025
vn -0.000000 -0.707107 -0.707107
vn -0.000000 -0.707107 -0.707107
vn -0.000000 -0.866025 -0.500000
vn -0.000000 -0.866025 -0.500000
vn -0.000000 -0.965926 -0.258819
vn -0.000000 -0.965926 -0.258819
vn 1.000000 0.000000 0.000000
vn 1.000000 0.000000 0.000000
vn 1.000000 0.000000 0.000000
vn 1.000000 0.000000 0.000000
vn 1.000000 0.000000 0.000000
vn 1.000000 0.000000 0.000000
vn 1.000000 0.000000 0.000000
vn 1.000000 0.000000 0.000000
vn 1.000000 0.000000 0.000000
vn 1.000000 0.000000 0.000000
vn 1.000000 0.000000 0.000000
vn 1.000000 0.000000 0.000000
vn 1.000000 0.000000 0.000000
vn 1.000000 0.000000 0.000000
vn 1.000000 0.000000 0.000000
vn 1.000000 0.000000 0.000000
vn 1.000000 0.000000 0.000000
vn 1.000000 0.000000 0.000000
vn 1.000000 0.000000 0.000000
vn 1.000000 0.000000 0.000000
vn 1.000000 0.000000 0.000000
vn 1.000000 0.000000 0.000000
vn 1.000000 0.000000 0.000000
vn 1.000000 0.000000 0.000000
vn 1.000000 0.000000 0.000000
vn 1.000000 0.000000 0.000000
vn 1.000000 0.000000 0.000000
vn 1.000000 0.000000 0.000000
vn -1.000000 -0.000000 -0.000000
vn -1.000000 -0.000000 -0.000000
vn -1.000000 -0.000000 -0.000000
vn -1.000000 -0.000000 -0.000000
vn -1.000000 -0.000000 -0.000000
vn -1.000000 -0.000000 -0.000000
vn -1.000000 -0.000000 -0.000000
vn -1.000000 -0.000000 -0.000000
vn -1.000000 -0.000000 -0.000000
vn -1.000000 -0.000000 -0.000000
vn -1.000000 -0.000000 -0.000000
vn -1.000000 -0.000000 -0.000000
vn -1.000000 -0.000000 -0.000000
vn -1.000000 -0.000000 -0.000000
vn -1.000000 -0.000000 -0.000000
vn -1.000000 -0.000000 -0.000000
vn -1.000000 -0.000000 -0.000000
vn -1.000000 -0.000000 -0.000000
vn -1.000000 -0.000000 -0.000000
vn -1.000000 -0.000000 -0.000000
vn -1.000000 -0.000000 -0.000000
vn -1.000000 -0.000000 -0.000000
vn -1.000000 -0.000000 -0.000000
vn -1.000000 -0.000000 -0.000000
vn -1.000000 -0.000000 -0.000000
vn -1.000000 -0.000000 -0.000000
vn -1.000000 -0.000000 -0.000000
vn -1.000000 -0.000000 -0.000000
usemtl PEEK
f 1/1/1 2/2/2 4/3/3
f 4/3/3 2/2/2 3/4/4
f 16/5/5 5/6/6 15/7/7
f 15/7/7 5/6/6 6/8/8
f 15/7/7 6/8/8 14/9/9
f 14/9/9 6/8/8 7/10/10
f 14/9/9 7/10/10 13/11/11
f 13/11/11 7/10/10 8/12/12
f 13/11/11 8/12/12 12/13/13
f 12/13/13 8/12/12 9/14/14
f 12/13/13 9/14/14 11/15/15
f 11/15/15 9/14/14 10/16/16
f 11/15/15 10/16/16 4/17/3
f 4/17/3 10/16/16 1/18/1
f 17/19/17 5/20/18 18/21/19
f 18/21/19 5/20/18 16/22/20
f 30/23/21 19/24/22 29/25/23
f 29/25/23 19/24/22 20/26/24
f 29/25/23 20/26/24 28/27/25
f 28/27/25 20/26/24 21/28/26
f 28/27/25 21/28/26 27/29/27
f 27/29/27 21/28/26 22/30/28
f 27/29/27 22/30/28 26/31/29
f 26/31/29 22/30/28 23/32/30
f 26/31/29 23/32/30 25/33/31
f 25/33/31 23/32/30 24/34/32
f 25/33/31 24/34/32 18/35/33
f 18/35/33 24/34/32 17/36/34
f 31/37/35 19/38/36 32/39/37
f 32/39/37 19/38/36 30/40/38
f 44/41/39 33/42/40 43/43/41
f 43/43/41 33/42/40 34/44/42
f 43/43/41 34/44/42 42/45/43
f 42/45/43 34/44/42 35/46/44
f 42/45/43 35/46/44 41/47/45
f 41/47/45 35/46/44 36/48/46
f 41/47/45 36/48/46 40/49/47
f 40/49/47 36/48/46 37/50/48
f 40/49/47 37/50/48 39/51/49
f 39/51/49 37/50/48 38/52/50
f 39/51/49 38/52/50 32/53/51
f 32/53/51 38/52/50 31/54/52
f 45/55/53 33/56/40 46/57/54
f 46/57/54 33/56/40 44/58/39
f 3/59/4 2/60/2 56/61/55
f 56/61/55 2/60/2 47/62/56
f 56/61/55 47/62/56 55/63/57
f 55/63/57 47/62/56 48/64/58
f 55/63/57 48/64/58 54/65/59
f 54/65/59 48/64/58 49/66/60
f 54/65/59 49/66/60 53/67/61
f 53/67/61 49/66/60 50/68/62
f 53/67/61 50/68/62 52/69/63
f 52/69/63 50/68/62 51/70/64
f 52/69/63 51/70/64 46/71/54
f 46/71/54 51/70/64 45/72/53
f 51/73/65 50/74/66 45/75/67
f 45/75/67 50/74/66 49/76/68
f 45/75/67 49/76/68 48/77/69
f 48/77/69 47/78/70 45/75/67
f 45/75/67 47/78/70 2/79/71
f 45/75/67 2/79/71 31/80/72
f 31/80/72 2/79/71 1/81/73
f 31/80/72 1/81/73 19/82/74
f 19/82/74 1/81/73 5/83/75
f 19/82/74 5/83/75 17/84/76
f 1/81/73 10/85/77 5/83/75
f 5/83/75 10/85/77 9/86/78
f 5/83/75 9/86/78 8/87/79
f 8/87/79 7/88/80 5/83/75
f 5/83/75 7/88/80 6/89/81
f 24/90/82 23/91/83 17/84/76
f 17/84/76 23/91/83 22/92/84
f 17/84/76 22/92/84 21/93/85
f 21/93/85 20/94/86 17/84/76
f 17/84/76 20/94/86 19/82/74
f 45/75/67 31/80/72 33/95/87
f 33/95/87 31/80/72 38/96/88
f 33/95/87 38/96/88 37/97/89
f 37/97/89 36/98/90 33/95/87
f 33/95/87 36/98/90 35/99/91
f 33/95/87 35/99/91 34/100/92
f 56/101/93 46/102/94 3/103/95
f 3/103/95 46/102/94 32/104/96
f 3/103/95 32/104/96 30/105/97
f 56/101/93 55/106/98 46/102/94
f 46/102/94 55/106/98 54/107/99
f 46/102/94 54/107/99 53/108/100
f 53/108/100 52/109/101 46/102/94
f 46/102/94 44/110/102 32/104/96
f 32/104/96 44/110/102 39/111/103
f 39/111/103 44/110/102 40/112/104
f 40/112/104 44/110/102 41/113/105
f 41/113/105 44/110/102 42/114/106
f 42/114/106 44/110/102 43/115/107
f 29/116/108 18/117/109 30/105/97
f 30/105/97 18/117/109 16/118/110
f 30/105/97 16/118/110 4/119/111
f 4/119/111 16/118/110 11/120/112
f 11/120/112 16/118/110 12/121/113
f 12/121/113 16/118/110 13/122/114
f 13/122/114 16/118/110 14/123/115
f 14/123/115 16/118/110 15/124/116
f 29/116/108 28/125/117 18/117/109
f 18/117/109 28/125/117 27/126/118
f 18/117/109 27/126/118 26/127/119
f 26/127/119 25/128/120 18/117/109
f 4/119/111 3/103/95 30/105/97
# 56 vertices
# 128 texture params
# 120 normals
# 108 facets

# 1 groups
